<svg xmlns="http://www.w3.org/2000/svg" xmlns:xlink="http://www.w3.org/1999/xlink" width="256" height="115" viewBox="0 0 256 115">
  <defs>
    <clipPath id="clip-path">
      <rect id="Rectangle_3728" data-name="Rectangle 3728" width="129" height="115" transform="translate(0 0.179)" fill="#75aecd"/>
    </clipPath>
  </defs>
  <g id="Group_5060" data-name="Group 5060" transform="translate(-59 -128)">
    <g id="Group_5059" data-name="Group 5059" transform="translate(0 -159)">
      <text id="Centasa" transform="translate(65 301)" fill="#707070" font-size="50" font-family="NotoSans-Bold, Noto Sans" font-weight="700"><tspan x="0" y="53">Centasa</tspan></text>
      <text id="Fault_Reporter" data-name="Fault Reporter" transform="translate(65 378)" fill="#707070" font-size="20" font-family="Montserrat-Medium, Montserrat" font-weight="500"><tspan x="0" y="0">Fault Reporter</tspan></text>
    </g>
    <g id="Group_5058" data-name="Group 5058" transform="translate(59 127.239)" opacity="0.229">
      <g id="Group_4953" data-name="Group 4953" transform="translate(0 0.583)" clip-path="url(#clip-path)">
        <path id="Path_11832" data-name="Path 11832" d="M49.473,56.7h.015a.2.2,0,0,0,.18-.167c.26-1.8.608-3.6,1.035-5.354.386-1.592.846-3.185,1.366-4.736a58.824,58.824,0,0,1,7.137-14.361,59.615,59.615,0,0,1,4-5.231A56.305,56.305,0,0,1,70.2,19.395a57.248,57.248,0,0,1,7.538-5.669A48.254,48.254,0,0,1,94.422,6.953l.007,0a37.708,37.708,0,0,1,8.024-1,26.834,26.834,0,0,1,8.291,1.137,17.275,17.275,0,0,1,7.436,4.5,14.026,14.026,0,0,1,2.631,3.988,15.343,15.343,0,0,1,1.229,5.346.19.19,0,0,0,.03.094,21.606,21.606,0,0,1,1.645,3.071,23.883,23.883,0,0,1,1.263,3.718,27.431,27.431,0,0,1,.725,4.434,32.68,32.68,0,0,1,0,5.2.193.193,0,0,0,.122.2.2.2,0,0,0,.227-.057A40.027,40.027,0,0,0,130.3,31.4a30.915,30.915,0,0,0,2.595-6.1,23.675,23.675,0,0,0,.986-5.679,19.045,19.045,0,0,0-.431-5.024,17.075,17.075,0,0,0-4.012-7.693A20.5,20.5,0,0,0,123,2.238a35.717,35.717,0,0,0-7.083-1.7,44.47,44.47,0,0,0-6.806-.388A55.516,55.516,0,0,0,96.764,1.838,67.407,67.407,0,0,0,86,5.536a74.588,74.588,0,0,0-9.655,5.13,76.8,76.8,0,0,0-7.57,5.682,74.742,74.742,0,0,0-7.15,6.967,71.193,71.193,0,0,0-6.759,8.839c-1.134,1.756-2.192,3.575-3.146,5.407a64.072,64.072,0,0,0-2.855,6.281,26.547,26.547,0,0,0,.423,12.72.2.2,0,0,0,.189.139m44.87-50.13A48.649,48.649,0,0,0,77.52,13.4a57.576,57.576,0,0,0-7.588,5.708,56.6,56.6,0,0,0-7.031,7.5,59.655,59.655,0,0,0-7.837,11.7A59.147,59.147,0,0,0,51.7,46.322c-.524,1.561-.987,3.165-1.376,4.768-.358,1.471-.661,2.975-.9,4.481a26.657,26.657,0,0,1-.176-11.621,64.466,64.466,0,0,1,2.829-6.209c.948-1.82,2-3.629,3.128-5.375a70.65,70.65,0,0,1,6.721-8.789,74.406,74.406,0,0,1,7.111-6.93,76.44,76.44,0,0,1,7.527-5.651,74.161,74.161,0,0,1,9.6-5.1A66.983,66.983,0,0,1,96.862,2.216,55.108,55.108,0,0,1,109.122.541a44.046,44.046,0,0,1,6.744.384A35.319,35.319,0,0,1,122.851,2.6a20.081,20.081,0,0,1,6.292,4.569,16.69,16.69,0,0,1,3.92,7.517,18.607,18.607,0,0,1,.422,4.922,23.268,23.268,0,0,1-.97,5.586,30.567,30.567,0,0,1-2.562,6.019,39.327,39.327,0,0,1-3.816,5.631A32.578,32.578,0,0,0,126.1,32.2a27.844,27.844,0,0,0-.735-4.5,24.317,24.317,0,0,0-1.284-3.779,21.949,21.949,0,0,0-1.647-3.082,15.692,15.692,0,0,0-1.257-5.429,14.4,14.4,0,0,0-2.7-4.1,17.677,17.677,0,0,0-7.606-4.6,27.4,27.4,0,0,0-8.416-1.155,38.149,38.149,0,0,0-8.1,1.009" transform="translate(-44.109 -0.683)" fill="#75aecd"/>
        <path id="Path_11833" data-name="Path 11833" d="M68.823,86.755a.2.2,0,0,0,.13-.048A.194.194,0,0,0,69,86.469a57.272,57.272,0,0,1-2.988-6.482A54.65,54.65,0,0,1,64.084,74a52.876,52.876,0,0,1-1.112-5.483c-.244-1.654-.409-3.337-.49-5-.074-1.515-.081-3.047-.019-4.554.057-1.381.171-2.775.341-4.146a50.846,50.846,0,0,1,1.436-7.225,41.543,41.543,0,0,1,1.706-6.72,45.459,45.459,0,0,1,2.443-5.748,50.311,50.311,0,0,1,6.067-9.213A54.27,54.27,0,0,1,88.717,13.754l.006,0a47.346,47.346,0,0,1,16.259-6.579,32.964,32.964,0,0,1,9.07-.544,20.319,20.319,0,0,1,8.824,2.684,20.094,20.094,0,0,1,7.93,5,18.113,18.113,0,0,1,3.137,4.47,19.964,19.964,0,0,1,1.865,6.174.2.2,0,0,0,.167.166.193.193,0,0,0,.208-.112,22.184,22.184,0,0,0,2.061-7.334,15.858,15.858,0,0,0-.661-6.272,14.065,14.065,0,0,0-2.746-4.841,16.507,16.507,0,0,0-4.1-3.38A35.005,35.005,0,0,0,118.047,1H117.8a51.722,51.722,0,0,0-11.845,1.517A64.573,64.573,0,0,0,95.448,6.072,72.862,72.862,0,0,0,85.93,11.1a76.121,76.121,0,0,0-8.663,6.6,74.489,74.489,0,0,0-8.182,8.466c-1.39,1.691-2.708,3.452-3.919,5.235a69.045,69.045,0,0,0-3.732,6.159,66.294,66.294,0,0,0-3.393,7.358,63.539,63.539,0,0,0-2.732,8.915,41.881,41.881,0,0,0-.228,7.846,36.192,36.192,0,0,0,1.579,8.48,32.423,32.423,0,0,0,4.226,8.674,31.738,31.738,0,0,0,7.823,7.882.2.2,0,0,0,.115.037M88.512,13.42A54.671,54.671,0,0,0,74.15,25.664a50.708,50.708,0,0,0-6.115,9.286,45.725,45.725,0,0,0-2.463,5.8,41.621,41.621,0,0,0-1.718,6.764,51.06,51.06,0,0,0-1.442,7.26c-.171,1.38-.287,2.786-.344,4.176-.062,1.519-.055,3.062.019,4.589.082,1.677.248,3.372.495,5.038A52.785,52.785,0,0,0,63.7,74.1a54.855,54.855,0,0,0,1.939,6.027A57.558,57.558,0,0,0,68.253,85.9a31.3,31.3,0,0,1-7.041-7.288,32.044,32.044,0,0,1-4.176-8.569,35.987,35.987,0,0,1-1.561-8.39A41.52,41.52,0,0,1,55.7,53.9a63.082,63.082,0,0,1,2.711-8.842,66.307,66.307,0,0,1,3.373-7.315A68.825,68.825,0,0,1,65.5,31.623c1.2-1.773,2.516-3.525,3.9-5.206a74.034,74.034,0,0,1,8.138-8.422,75.781,75.781,0,0,1,8.614-6.568,72.454,72.454,0,0,1,9.462-5A64.233,64.233,0,0,1,106.05,2.893a51.366,51.366,0,0,1,11.753-1.5h.245a34.638,34.638,0,0,1,12.514,2.147,16.156,16.156,0,0,1,3.973,3.285,13.67,13.67,0,0,1,2.67,4.708,15.465,15.465,0,0,1,.644,6.117,21.434,21.434,0,0,1-1.752,6.6,20.157,20.157,0,0,0-1.8-5.627,18.512,18.512,0,0,0-3.2-4.567,20.388,20.388,0,0,0-8.047-5.084,20.642,20.642,0,0,0-8.958-2.723,33.5,33.5,0,0,0-9.181.549A47.751,47.751,0,0,0,88.512,13.42" transform="translate(-53.809 -0.871)" fill="#75aecd"/>
        <path id="Path_11834" data-name="Path 11834" d="M110.623,107.269c1.437,0,2.885-.053,4.332-.158a64.695,64.695,0,0,0,17.035-3.652.194.194,0,0,0,.13-.2.2.2,0,0,0-.153-.179c-2.793-.625-5.559-1.379-8.221-2.244-2.482-.806-4.926-1.723-7.263-2.727-2.176-.935-4.306-1.964-6.331-3.06-1.888-1.021-3.721-2.121-5.453-3.268-1.615-1.07-3.179-2.207-4.65-3.378C98.68,87.318,97.361,86.17,96.124,85a54.025,54.025,0,0,1-6-6.7.186.186,0,0,0-.047-.045,34.526,34.526,0,0,1-4.822-3.918,31.877,31.877,0,0,1-3.6-4.181,30.339,30.339,0,0,1-4.252-8.431,31.307,31.307,0,0,1-1.44-7.868,34.234,34.234,0,0,1,.355-7.006A38.05,38.05,0,0,1,77.8,40.731a41.923,41.923,0,0,1,2.166-5.3,46.517,46.517,0,0,1,5.487-8.6l0-.006a48.908,48.908,0,0,1,6.964-7.518,51.645,51.645,0,0,1,7.851-5.68,42.4,42.4,0,0,1,17.954-6.049,31.817,31.817,0,0,1,11.6.14,22.326,22.326,0,0,1,5.915,2.114A17.417,17.417,0,0,1,141,14.092a.2.2,0,0,0,.349-.1,11.73,11.73,0,0,0-.765-5.918,11.179,11.179,0,0,0-3.295-4.293.2.2,0,0,0-.059-.033,32.706,32.706,0,0,0-11.4-1.656,48.717,48.717,0,0,0-10.763,1.482,65.628,65.628,0,0,0-18.786,8.1,74.805,74.805,0,0,0-9.525,7.385c-1.577,1.441-3.109,2.969-4.557,4.544-1.56,1.7-3.053,3.487-4.436,5.316A70.691,70.691,0,0,0,73.5,35.252a68.132,68.132,0,0,0-3.962,7.687c-.646,1.478-1.241,2.989-1.771,4.494-.584,1.656-1.1,3.345-1.543,5.021-.488,1.859-.894,3.753-1.208,5.631a61.6,61.6,0,0,0-.721,6.327,46.789,46.789,0,0,0,.664,7.139A43.593,43.593,0,0,0,67,79.206a41.46,41.46,0,0,0,3.936,7.941,40.967,40.967,0,0,0,6.409,7.742,43.051,43.051,0,0,0,9.417,6.723,46.746,46.746,0,0,0,5.935,2.622,50.052,50.052,0,0,0,6.738,1.9,53.881,53.881,0,0,0,7.465,1.012c1.228.08,2.472.12,3.724.12m20.6-3.953a64.169,64.169,0,0,1-16.294,3.405,57.817,57.817,0,0,1-8,.037,53.21,53.21,0,0,1-7.41-1,49.508,49.508,0,0,1-6.684-1.888,46.215,46.215,0,0,1-5.884-2.6,42.641,42.641,0,0,1-9.332-6.66,40.573,40.573,0,0,1-6.346-7.668,41.071,41.071,0,0,1-3.9-7.866,43.271,43.271,0,0,1-2.027-7.586,46.394,46.394,0,0,1-.658-7.066,61.031,61.031,0,0,1,.716-6.272c.311-1.866.715-3.749,1.2-5.6.438-1.666.953-3.345,1.533-4.992.527-1.5,1.119-3,1.761-4.467a67.952,67.952,0,0,1,3.939-7.643,70.815,70.815,0,0,1,4.248-6.3c1.376-1.819,2.86-3.6,4.413-5.288,1.439-1.565,2.964-3.086,4.531-4.519A74.379,74.379,0,0,1,96.5,12a65.2,65.2,0,0,1,18.667-8.052,48.265,48.265,0,0,1,10.674-1.471A32.185,32.185,0,0,1,137.071,4.1a10.769,10.769,0,0,1,3.154,4.12,11.214,11.214,0,0,1,.782,5.263,17.92,17.92,0,0,0-5.084-4,22.739,22.739,0,0,0-6.02-2.153,32.173,32.173,0,0,0-11.73-.146,42.77,42.77,0,0,0-18.108,6.1,52.078,52.078,0,0,0-7.911,5.724,49.283,49.283,0,0,0-7.017,7.576,46.876,46.876,0,0,0-5.53,8.668,42.057,42.057,0,0,0-2.187,5.352,38.49,38.49,0,0,0-1.488,6.177,34.669,34.669,0,0,0-.359,7.085,31.723,31.723,0,0,0,1.458,7.966,30.741,30.741,0,0,0,4.306,8.537,32.323,32.323,0,0,0,3.642,4.233,34.937,34.937,0,0,0,4.849,3.944,54.271,54.271,0,0,0,6.022,6.727c1.244,1.18,2.573,2.335,3.95,3.433,1.48,1.179,3.054,2.322,4.677,3.4,1.741,1.154,3.586,2.259,5.484,3.287,2.035,1.1,4.177,2.135,6.363,3.075,2.347,1.009,4.8,1.93,7.3,2.74,2.464.8,5.017,1.507,7.6,2.1" transform="translate(-64.291 -1.109)" fill="#75aecd"/>
        <path id="Path_11835" data-name="Path 11835" d="M61.329,114.74q1.364,0,2.733-.058a68.1,68.1,0,0,0,12.723-1.773,73.7,73.7,0,0,0,35.409-20.04,70.087,70.087,0,0,0,8.3-10.236,64.962,64.962,0,0,0,5.814-10.843,59.42,59.42,0,0,0,3.348-10.745.2.2,0,0,0-.043-.165.231.231,0,0,0-.159-.069c-2.52.1-5.052.151-7.524.162-2.36.009-4.715-.019-7-.087-2.175-.064-4.353-.164-6.473-.3-2.012-.127-4.019-.289-5.964-.478a.2.2,0,0,0-.163.061A60.185,60.185,0,0,1,87.025,71.738a63.664,63.664,0,0,1-8.83,3.884,61.309,61.309,0,0,1-8.927,2.405,56.533,56.533,0,0,1-8.557.96,50.381,50.381,0,0,1-7.828-.329,44.107,44.107,0,0,1-6.876-1.39,38.519,38.519,0,0,1-5.829-2.2A33.826,33.826,0,0,1,35.394,72.3a30.515,30.515,0,0,1-3.8-3.126A27.469,27.469,0,0,1,26.5,62.466a26.555,26.555,0,0,1-2.49-6.665,28.061,28.061,0,0,1-.687-6.207v-.015a27.536,27.536,0,0,1,.408-7.127,33.033,33.033,0,0,1,1.846-6.275,40.68,40.68,0,0,1,5.99-10.13,48.066,48.066,0,0,1,7.535-7.52,48.833,48.833,0,0,1,8.447-5.442A45.038,45.038,0,0,1,60.39,8.2a35.589,35.589,0,0,1,7.226-.775h.015a26.131,26.131,0,0,1,7.512,1.044.2.2,0,0,0,.237-.1,15.611,15.611,0,0,0,1.257-3.849.2.2,0,0,0-.145-.223c-5.476-1.381-11.8-1.133-18.808.735A62.906,62.906,0,0,0,40.921,12.4a72.985,72.985,0,0,0-10.1,7.962c-1.683,1.585-3.309,3.273-4.833,5.014a71.4,71.4,0,0,0-4.691,5.981,69.345,69.345,0,0,0-4.462,7.28A66.756,66.756,0,0,0,12.857,47.7c-.624,1.779-1.176,3.6-1.637,5.407-.514,2.018-.932,4.079-1.24,6.125a61.132,61.132,0,0,0-.646,6.954,60.076,60.076,0,0,0,.243,7.889A48.777,48.777,0,0,0,10.8,79.5a47.453,47.453,0,0,0,2.022,5.662,46.449,46.449,0,0,0,7.213,11.645,47.474,47.474,0,0,0,5.605,5.593,49.516,49.516,0,0,0,7.188,5.035,52.942,52.942,0,0,0,8.867,4.055,57.319,57.319,0,0,0,10.5,2.582,62.008,62.008,0,0,0,9.134.668m67.893-53.528a59.1,59.1,0,0,1-3.275,10.43,64.557,64.557,0,0,1-5.78,10.777A69.681,69.681,0,0,1,111.909,92.6a73.292,73.292,0,0,1-35.217,19.932,67.618,67.618,0,0,1-12.647,1.762,62.068,62.068,0,0,1-11.792-.605,56.9,56.9,0,0,1-10.424-2.564,52.462,52.462,0,0,1-8.8-4.024A49.2,49.2,0,0,1,25.9,102.1a47.246,47.246,0,0,1-5.56-5.547,46.04,46.04,0,0,1-7.15-11.547,47,47,0,0,1-2.006-5.615,48.28,48.28,0,0,1-1.215-5.366A59.439,59.439,0,0,1,9.728,66.2a60.919,60.919,0,0,1,.642-6.911c.307-2.033.722-4.081,1.233-6.087.459-1.8,1.006-3.607,1.627-5.375a66.314,66.314,0,0,1,3.951-9.013,68.9,68.9,0,0,1,4.436-7.238,70.742,70.742,0,0,1,4.666-5.947C27.8,23.9,29.416,22.22,31.09,20.643a72.618,72.618,0,0,1,10.045-7.916A62.519,62.519,0,0,1,57.787,5.405c6.861-1.829,13.06-2.089,18.428-.777a15.276,15.276,0,0,1-1.123,3.421A26.632,26.632,0,0,0,67.63,7.037h-.014a36,36,0,0,0-7.309.783,45.408,45.408,0,0,0-12.944,4.923,49.129,49.129,0,0,0-8.507,5.482,48.443,48.443,0,0,0-7.6,7.581,41.053,41.053,0,0,0-6.047,10.228,33.337,33.337,0,0,0-1.868,6.349A27.89,27.89,0,0,0,22.93,49.6a28.485,28.485,0,0,0,.7,6.285,26.91,26.91,0,0,0,2.527,6.763,27.828,27.828,0,0,0,5.161,6.807,30.786,30.786,0,0,0,3.852,3.166,34.233,34.233,0,0,0,4.839,2.8A38.9,38.9,0,0,0,45.9,77.642a44.642,44.642,0,0,0,6.94,1.4,50.964,50.964,0,0,0,7.89.332,57.122,57.122,0,0,0,8.617-.967,61.785,61.785,0,0,0,8.986-2.421,64.013,64.013,0,0,0,8.886-3.909,60.575,60.575,0,0,0,15.345-11.572c1.92.186,3.9.345,5.881.47,2.125.134,4.307.235,6.488.3,2.285.068,4.643.094,7.01.087,2.395-.011,4.844-.062,7.286-.153" transform="translate(-9.06 -1.402)" fill="#75aecd"/>
        <path id="Path_11836" data-name="Path 11836" d="M56.424,117.444a69.341,69.341,0,0,0,11.555-.978,73.638,73.638,0,0,0,16.711-4.939,75.337,75.337,0,0,0,15.53-8.986A72.939,72.939,0,0,0,112.9,90.4a67.266,67.266,0,0,0,8.767-13.854,60.505,60.505,0,0,0,4.64-14.033,56.045,56.045,0,0,0,.9-6.694,53.474,53.474,0,0,0,.089-6.331,50.626,50.626,0,0,0-1.814-11.334,48.277,48.277,0,0,0-8.626-16.944.2.2,0,0,0-.065-.052c-2.249-1.156-4.511-2.241-6.719-3.226-1.992-.887-3.994-1.716-5.952-2.465-1.781-.68-3.57-1.311-5.316-1.875-1.594-.514-3.2-.989-4.784-1.411a.2.2,0,0,0-.219.084.194.194,0,0,0,.018.232,23.637,23.637,0,0,1,3.973,6.266,23.988,23.988,0,0,1,1.892,8.15,27.078,27.078,0,0,1-.156,4.718,30.7,30.7,0,0,1-1.052,5.046,35.433,35.433,0,0,1-2.035,5.244A40.972,40.972,0,0,1,93.386,47.2a49.27,49.27,0,0,1-8.992,9.866A57.892,57.892,0,0,1,59.672,69.218a52.518,52.518,0,0,1-6.228.969,48,48,0,0,1-5.837.191h-.021a41.121,41.121,0,0,1-8.392-.2,33.706,33.706,0,0,1-7.066-1.687,27.669,27.669,0,0,1-5.6-2.749,23.671,23.671,0,0,1-4.18-3.415,21.675,21.675,0,0,1-4.786-7.648,22.836,22.836,0,0,1-1.325-7.566,27.311,27.311,0,0,1,.846-6.855,32.76,32.76,0,0,1,2.159-5.987A40.122,40.122,0,0,1,25.655,24.7a45.9,45.9,0,0,1,12.627-10.6,42.219,42.219,0,0,1,15.7-5.485.227.227,0,0,0,.058-.017c1.129-.523,2.322-1.025,3.546-1.492,1.3-.5,2.668-.964,4.056-1.388a.2.2,0,0,0,.138-.2.2.2,0,0,0-.173-.176,37.3,37.3,0,0,0-15,1.6A59.952,59.952,0,0,0,32.538,13.3,70.5,70.5,0,0,0,17.227,26.87a68.959,68.959,0,0,0-4.784,6.4A66.9,66.9,0,0,0,7.96,41.18C7.222,42.72,6.54,44.3,5.933,45.872c-.671,1.739-1.27,3.525-1.782,5.307-.57,1.984-1.045,4.013-1.41,6.032A60.383,60.383,0,0,0,1.9,64.09a58.954,58.954,0,0,0,.02,7.846,58.149,58.149,0,0,0,1.319,8.9A49.369,49.369,0,0,0,6.027,88.06,48.782,48.782,0,0,0,10.458,95.5a49.65,49.65,0,0,0,6.5,7.327,52.147,52.147,0,0,0,8.965,6.644,56.309,56.309,0,0,0,11.668,5.152,60.6,60.6,0,0,0,6.829,1.707,63.738,63.738,0,0,0,7.419.953q2.28.158,4.588.158m60.148-95.964A47.91,47.91,0,0,1,125.1,38.254,50.225,50.225,0,0,1,126.9,49.5a53.046,53.046,0,0,1-.088,6.286,55.386,55.386,0,0,1-.9,6.647,60.094,60.094,0,0,1-4.61,13.943,66.922,66.922,0,0,1-8.717,13.774,72.543,72.543,0,0,1-12.61,12.08,74.929,74.929,0,0,1-15.447,8.938,73.2,73.2,0,0,1-16.62,4.911,68.112,68.112,0,0,1-16.049.816,63.473,63.473,0,0,1-7.372-.948,60.212,60.212,0,0,1-6.785-1.7,55.9,55.9,0,0,1-11.585-5.116,51.727,51.727,0,0,1-8.9-6.594,49.292,49.292,0,0,1-6.446-7.268A48.347,48.347,0,0,1,3.622,80.741,57.778,57.778,0,0,1,2.313,71.91a58.862,58.862,0,0,1-.02-7.8,60.133,60.133,0,0,1,.836-6.834,61.489,61.489,0,0,1,1.4-5.994c.508-1.771,1.1-3.546,1.771-5.275.6-1.564,1.281-3.133,2.015-4.665a66.794,66.794,0,0,1,4.456-7.86,68.826,68.826,0,0,1,4.758-6.368A70.1,70.1,0,0,1,32.752,13.624,59.494,59.494,0,0,1,46.728,7.308a37.825,37.825,0,0,1,13.9-1.688c-1.084.349-2.15.722-3.178,1.113C56.225,7.2,55.033,7.7,53.9,8.224a42.629,42.629,0,0,0-15.82,5.531A46.279,46.279,0,0,0,25.353,24.444,40.47,40.47,0,0,0,18.888,34.1,33.14,33.14,0,0,0,16.7,40.163a27.643,27.643,0,0,0-.858,6.952,23.21,23.21,0,0,0,1.348,7.694A22.078,22.078,0,0,0,22.065,62.6a24.109,24.109,0,0,0,4.249,3.472,28.082,28.082,0,0,0,5.678,2.789,34.086,34.086,0,0,0,7.149,1.707,41.7,41.7,0,0,0,8.463.2,48.6,48.6,0,0,0,5.876-.193,53.131,53.131,0,0,0,6.276-.977A58.3,58.3,0,0,0,84.65,57.359a49.674,49.674,0,0,0,9.064-9.945A41.374,41.374,0,0,0,96.8,42.087a35.75,35.75,0,0,0,2.057-5.3,31.052,31.052,0,0,0,1.066-5.109,27.461,27.461,0,0,0,.159-4.786,24.385,24.385,0,0,0-1.923-8.282,23.932,23.932,0,0,0-3.626-5.888c1.376.378,2.769.793,4.15,1.24,1.74.561,3.522,1.19,5.3,1.868,1.951.745,3.947,1.571,5.931,2.456,2.189.975,4.431,2.051,6.661,3.2" transform="translate(-0.808 -1.778)" fill="#75aecd"/>
        <path id="Path_11837" data-name="Path 11837" d="M55,115.615a70.059,70.059,0,0,0,8.131-.478,72.778,72.778,0,0,0,9.844-1.855,75.467,75.467,0,0,0,35.584-21.067,67.426,67.426,0,0,0,11.192-15.993,61.451,61.451,0,0,0,3.417-8.316,57.69,57.69,0,0,0,2.023-8.15,54.511,54.511,0,0,0,.762-7.768,51.7,51.7,0,0,0-.326-7.234,49.8,49.8,0,0,0-1.225-6.606,48.835,48.835,0,0,0-1.937-5.936,48.262,48.262,0,0,0-5.356-9.873,49.35,49.35,0,0,0-6.464-7.445,51.672,51.672,0,0,0-6.848-5.429,54.607,54.607,0,0,0-6.8-3.836C95.256,5.082,93.517,4.6,91.8,4.174c-1.573-.385-3.175-.728-4.76-1.018a79.107,79.107,0,0,0-8.463-1.081c-2.431-.176-4.888-.236-7.293-.18-2.13.051-4.271.194-6.364.427a.2.2,0,0,0,0,.389,34.453,34.453,0,0,1,8,1.634,24.927,24.927,0,0,1,7.522,4,19.087,19.087,0,0,1,5.607,7.135,18.386,18.386,0,0,1,1.39,4.869,20.863,20.863,0,0,1,0,5.658.175.175,0,0,0,0,.035,25.355,25.355,0,0,1-.514,6.443,31.535,31.535,0,0,1-2.389,7.046,39.408,39.408,0,0,1-4.437,7.19,47.19,47.19,0,0,1-6.379,6.738,53.284,53.284,0,0,1-16.633,9.775,49.452,49.452,0,0,1-8.8,2.318,42.464,42.464,0,0,1-8.188.567,34.977,34.977,0,0,1-7.108-.932,28.311,28.311,0,0,1-5.8-2.072,23.5,23.5,0,0,1-4.474-2.846,20.69,20.69,0,0,1-3.25-3.3,19.409,19.409,0,0,1-3.495-7.087,21.585,21.585,0,0,1-.623-6.862,25.381,25.381,0,0,1,2.427-10.684,36.577,36.577,0,0,1,5.505-8.562A45.557,45.557,0,0,1,38.388,12.253a48.94,48.94,0,0,1,6.048-3.207A51.465,51.465,0,0,1,51.58,6.489a.2.2,0,0,0,.142-.216.2.2,0,0,0-.2-.167A37.3,37.3,0,0,0,40.508,8.147a56.371,56.371,0,0,0-10.879,5.034A67.947,67.947,0,0,0,14.462,26.8,66.879,66.879,0,0,0,9.745,33.3a64.591,64.591,0,0,0-4.365,8.055c-.71,1.571-1.361,3.184-1.933,4.793-.633,1.781-1.188,3.608-1.65,5.429A59.569,59.569,0,0,0,.576,57.75,57.576,57.576,0,0,0,.01,64.793a56.647,56.647,0,0,0,.419,8.019,56.016,56.016,0,0,0,1.9,9.06,48.488,48.488,0,0,0,4.106,8.492,49.129,49.129,0,0,0,6.655,8.582,51.836,51.836,0,0,0,9.879,7.93,55.343,55.343,0,0,0,6.309,3.362,58.619,58.619,0,0,0,7.249,2.715,62.288,62.288,0,0,0,8.148,1.857,65.891,65.891,0,0,0,8.931.79q.693.015,1.392.015M73.044,2.263c1.828,0,3.67.067,5.5.2a78.705,78.705,0,0,1,8.42,1.075c1.578.289,3.171.63,4.737,1.014,1.711.42,3.443.9,5.144,1.438a54.428,54.428,0,0,1,6.727,3.8,51.284,51.284,0,0,1,6.795,5.387,48.942,48.942,0,0,1,6.413,7.387,47.89,47.89,0,0,1,5.313,9.793,48.39,48.39,0,0,1,1.922,5.889,49.542,49.542,0,0,1,1.214,6.554,51.286,51.286,0,0,1,.324,7.18,53.96,53.96,0,0,1-.757,7.713,57.18,57.18,0,0,1-2.008,8.1,61.2,61.2,0,0,1-3.4,8.263,67.033,67.033,0,0,1-11.128,15.9A75.069,75.069,0,0,1,72.871,112.9a72.513,72.513,0,0,1-9.789,1.846,68.98,68.98,0,0,1-9.469.46,65.453,65.453,0,0,1-8.875-.786,61.706,61.706,0,0,1-8.095-1.845,58.163,58.163,0,0,1-7.2-2.7,54.929,54.929,0,0,1-6.264-3.338,51.375,51.375,0,0,1-9.8-7.868,48.76,48.76,0,0,1-6.6-8.514A48.073,48.073,0,0,1,2.7,81.75,55.512,55.512,0,0,1,.82,72.765,56.251,56.251,0,0,1,.4,64.8a57.121,57.121,0,0,1,.563-7,59.28,59.28,0,0,1,1.212-6.135c.459-1.809,1.011-3.625,1.64-5.394.568-1.6,1.214-3.2,1.921-4.764A63.977,63.977,0,0,1,10.08,33.5a66.183,66.183,0,0,1,4.689-6.456A67.489,67.489,0,0,1,29.84,13.512,55.9,55.9,0,0,1,40.635,8.517a38.549,38.549,0,0,1,9.283-1.947,51.672,51.672,0,0,0-5.644,2.12A49.089,49.089,0,0,0,38.2,11.912,45.908,45.908,0,0,0,22.979,23.521a36.969,36.969,0,0,0-5.564,8.653,25.722,25.722,0,0,0-2.46,10.832,21.96,21.96,0,0,0,.634,6.971A19.8,19.8,0,0,0,19.153,57.2a21.039,21.039,0,0,0,3.311,3.367,23.845,23.845,0,0,0,4.55,2.894,28.72,28.72,0,0,0,5.886,2.1,35.346,35.346,0,0,0,7.19.943,42.937,42.937,0,0,0,8.265-.573A49.785,49.785,0,0,0,57.228,63.6a53.692,53.692,0,0,0,16.759-9.849,47.677,47.677,0,0,0,6.432-6.794A39.8,39.8,0,0,0,84.9,39.7a31.882,31.882,0,0,0,2.419-7.132,25.727,25.727,0,0,0,.522-6.523,21.18,21.18,0,0,0-.007-5.744,18.749,18.749,0,0,0-1.419-4.972,19.481,19.481,0,0,0-5.72-7.282,25.324,25.324,0,0,0-7.642-4.068A33.817,33.817,0,0,0,66.8,2.528c1.486-.126,2.989-.208,4.485-.243q.875-.021,1.756-.021" transform="translate(1.984 -1.063)" fill="#75aecd"/>
        <path id="Path_11838" data-name="Path 11838" d="M54.889,110.877q1.075,0,2.151-.034a71.354,71.354,0,0,0,10.972-1.212,74.528,74.528,0,0,0,22.061-7.948,72.53,72.53,0,0,0,18.585-14.535,66.856,66.856,0,0,0,6.861-8.872,61.777,61.777,0,0,0,4.948-9.311,56.856,56.856,0,0,0,3.039-9.3,52.551,52.551,0,0,0,1.283-8.91,49.391,49.391,0,0,0-.228-8.257,47.22,47.22,0,0,0-1.454-7.446A46.032,46.032,0,0,0,117.642,22.8a47.483,47.483,0,0,0-7.357-8.931,50.741,50.741,0,0,0-8-6.191c-1.688-.889-3.426-1.707-5.175-2.44-1.6-.671-3.251-1.287-4.9-1.832a67.758,67.758,0,0,0-9-2.287A69.6,69.6,0,0,0,75.229.143c-2.338-.15-4.718-.182-7.075-.1-2.1.076-4.222.249-6.311.512-1.9.24-3.808.559-5.677.949a72.311,72.311,0,0,0-9.87,2.8.2.2,0,0,0,.094.377,28.411,28.411,0,0,1,9.354.158.167.167,0,0,0,.052,0A33.995,33.995,0,0,1,68.65,6.393a23.576,23.576,0,0,1,6.168,3.1,18.675,18.675,0,0,1,5.049,5.314,18.183,18.183,0,0,1,2.624,7.874,21.294,21.294,0,0,1-.115,4.853,25.73,25.73,0,0,1-1.334,5.308,31.736,31.736,0,0,1-2.674,5.534,38.529,38.529,0,0,1-4.02,5.454,46.32,46.32,0,0,1-11.365,9.3,49.152,49.152,0,0,1-7.819,4.388,46.426,46.426,0,0,1-8.137,2.77,40.148,40.148,0,0,1-7.771,1.081,32.669,32.669,0,0,1-6.877-.445,25.871,25.871,0,0,1-5.683-1.666,20.955,20.955,0,0,1-4.4-2.533,17.709,17.709,0,0,1-5.306-6.439,18.035,18.035,0,0,1-1.707-6.888,22.454,22.454,0,0,1,.655-6.479A31,31,0,0,1,21.1,26.156C25.479,19.177,32.61,13.368,41.181,9.79a.195.195,0,0,0-.084-.374,28.5,28.5,0,0,0-7.764,1.508,61.425,61.425,0,0,0-9.221,6.01,65.021,65.021,0,0,0-12.979,13.7,64.047,64.047,0,0,0-4.008,6.491,62.315,62.315,0,0,0-3.6,7.991c-.567,1.546-1.077,3.133-1.515,4.718-.484,1.748-.89,3.533-1.21,5.3a50.638,50.638,0,0,0-.456,7.008,48.267,48.267,0,0,0,.684,7.881A46.115,46.115,0,0,0,8.273,88.1a47.8,47.8,0,0,0,8.293,9.338,50.987,50.987,0,0,0,5.746,4.308,54.056,54.056,0,0,0,6.938,3.78,58.138,58.138,0,0,0,8.16,2.98,62.547,62.547,0,0,0,9.323,1.874,66.712,66.712,0,0,0,8.155.5M70.725.389c1.5,0,3,.048,4.479.143a69.137,69.137,0,0,1,7.932.973,67.476,67.476,0,0,1,8.95,2.275c1.644.541,3.284,1.153,4.876,1.82,1.739.729,3.465,1.542,5.13,2.419a50.349,50.349,0,0,1,7.92,6.136,47.1,47.1,0,0,1,7.3,8.857,45.725,45.725,0,0,1,5.419,12.148,46.931,46.931,0,0,1,1.441,7.385,49.04,49.04,0,0,1,.226,8.193,52.127,52.127,0,0,1-1.274,8.845,56.53,56.53,0,0,1-3.018,9.233,61.473,61.473,0,0,1-4.917,9.252,66.538,66.538,0,0,1-6.821,8.82,72.152,72.152,0,0,1-18.484,14.457,74.152,74.152,0,0,1-21.942,7.9,70.973,70.973,0,0,1-10.911,1.205,66.882,66.882,0,0,1-10.245-.46,62.1,62.1,0,0,1-9.262-1.862,57.81,57.81,0,0,1-8.1-2.96,53.659,53.659,0,0,1-6.887-3.753,50.493,50.493,0,0,1-5.7-4.275A47.358,47.358,0,0,1,8.6,87.884a45.766,45.766,0,0,1-4.817-9.268A46.3,46.3,0,0,1,1.42,69.957a48.034,48.034,0,0,1-.678-7.819,50.384,50.384,0,0,1,.451-6.945c.316-1.752.72-3.525,1.2-5.262.435-1.574.942-3.151,1.506-4.687A61.843,61.843,0,0,1,7.473,37.3a63.578,63.578,0,0,1,3.984-6.451,64.716,64.716,0,0,1,12.9-13.612,61.231,61.231,0,0,1,9.131-5.959,29.811,29.811,0,0,1,6.507-1.406A43.4,43.4,0,0,0,20.767,25.939a31.355,31.355,0,0,0-5.219,10.9,22.864,22.864,0,0,0-.666,6.591,18.458,18.458,0,0,0,1.744,7.034,18.094,18.094,0,0,0,5.424,6.582,21.4,21.4,0,0,0,4.486,2.582,26.322,26.322,0,0,0,5.772,1.692,32.942,32.942,0,0,0,6.962.452,40.515,40.515,0,0,0,7.849-1.092,46.786,46.786,0,0,0,8.207-2.793A49.445,49.445,0,0,0,63.2,53.466a46.714,46.714,0,0,0,11.449-9.375,38.994,38.994,0,0,0,4.062-5.51,32.214,32.214,0,0,0,2.706-5.6,26.116,26.116,0,0,0,1.353-5.388,21.7,21.7,0,0,0,.118-4.942A18.568,18.568,0,0,0,80.2,14.606a19.07,19.07,0,0,0-5.154-5.425,23.967,23.967,0,0,0-6.271-3.157A34.422,34.422,0,0,0,55.8,4.457a27.325,27.325,0,0,0-7.754-.343,71.825,71.825,0,0,1,8.2-2.226c1.858-.388,3.759-.7,5.644-.943C63.97.683,66.082.512,68.168.436Q69.443.389,70.725.389" transform="translate(2.809 -0.651)" fill="#75aecd"/>
      </g>
    </g>
  </g>
</svg>
